<svg version="1.0" xmlns="http://www.w3.org/2000/svg"
     width="64.000000pt" height="64.000000pt">
  <g transform="translate(0.000000,64.000000) scale(0.100000,-0.100000)"
  >
    <path d="M0 320 l0 -320 320 0 320 0 0 320 0 320 -320 0 -320 0 0 -320z m490
214 c0 -15 2 -15 25 0 39 26 45 20 45 -44 0 -65 -8 -72 -48 -44 -20 14 -22 14
-22 0 0 -13 -14 -16 -80 -16 l-80 0 0 60 0 60 80 0 c67 0 80 -3 80 -16z m-254
-210 c29 -14 32 -19 23 -36 -8 -15 -16 -18 -32 -13 -49 16 -83 17 -95 2 -16
-19 -2 -30 60 -47 58 -15 81 -40 80 -82 -1 -49 -40 -78 -103 -78 -47 0 -109
22 -109 38 0 4 7 15 15 26 13 17 15 17 37 2 28 -20 81 -21 97 -2 15 18 -1 30
-54 45 -64 17 -85 37 -85 80 0 71 83 104 166 65z m235 -83 c19 -20 29 -40 29
-60 l0 -31 -70 0 c-70 0 -83 -7 -55 -30 10 -8 29 -10 55 -6 32 5 42 3 47 -10
8 -23 -14 -34 -70 -34 -53 0 -91 27 -103 74 -25 100 94 169 167 97z"/>
    <path d="M367 223 c-20 -19 -5 -33 38 -33 46 0 54 7 33 28 -13 13 -60 16 -71
5z"/>
  </g>
</svg>
